<svg width="39" height="39" viewBox="0 0 39 39" fill="none" xmlns="http://www.w3.org/2000/svg">
<path d="M24 25.0001V30.3334C24.001 31.3746 23.596 32.3752 22.871 33.1225C22.146 33.8698 21.1581 34.305 20.1174 34.3355C19.0766 34.3661 18.065 33.9896 17.2974 33.2861C16.5298 32.5826 16.0667 31.6076 16.0067 30.5681L16 30.3334V25.0001H24ZM10.5333 22.3334C9.89566 22.3333 9.28148 22.0928 8.81337 21.6598C8.34526 21.2268 8.05767 20.6331 8.008 19.9974L8 19.8001C8 13.1027 13.3693 7.66675 20 7.66675C26.6307 7.66675 32 13.1027 32 19.8001C31.9999 20.4378 31.7594 21.0519 31.3264 21.52C30.8933 21.9882 30.2997 22.2757 29.664 22.3254L29.4667 22.3334H10.5333Z" fill="#09537E"/>
</svg>
